<svg width="45" height="45" viewBox="0 0 45 45" fill="none" xmlns="http://www.w3.org/2000/svg">
<rect width="45" height="45" rx="12" fill="white"/>
<path fill-rule="evenodd" clip-rule="evenodd" d="M7.394 15.8709C7.06522 15.2958 6.85425 14.661 6.7734 14.0036C6.69254 13.3461 6.74341 12.6791 6.92304 12.0415C7.10267 11.4039 7.40747 10.8084 7.81965 10.2898C8.23184 9.77125 8.74315 9.33994 9.32378 9.02106L9.99312 8.65596C11.0878 8.0535 12.3749 7.90357 13.5788 8.23825C14.7827 8.57294 15.8077 9.36564 16.4344 10.4467L22.7106 21.1822L29.0128 10.438C29.3218 9.90903 29.732 9.4462 30.2201 9.07597C30.7081 8.70574 31.2643 8.43538 31.857 8.28036C32.4496 8.12534 33.067 8.0887 33.6738 8.17254C34.2806 8.25638 34.8649 8.45906 35.3933 8.76897L36.167 9.22969C37.2702 9.88716 38.0708 10.9519 38.396 12.1944C38.7212 13.4368 38.5451 14.7572 37.9055 15.8709C35.1238 20.7823 30.4645 28.9883 27.0483 34.995C26.6139 35.7654 25.9825 36.4066 25.2187 36.8527C24.455 37.2989 23.5864 37.534 22.7019 37.534C21.8174 37.534 20.9488 37.2989 20.1851 36.8527C19.4214 36.4066 18.79 35.7654 18.3555 34.995L7.394 15.8709Z" fill="#ED2132"/>
<path fill-rule="evenodd" clip-rule="evenodd" d="M16.1473 9.95103C15.2406 9.15511 14.0675 8.72991 12.8614 8.76013C12.2737 8.77938 11.7015 8.95355 11.2027 9.26502C10.7039 9.57649 10.2962 10.0142 10.021 10.5338C9.74571 11.0535 9.61261 11.6366 9.63514 12.2243C9.65767 12.8119 9.83504 13.3831 10.1493 13.8801C11.6792 16.488 13.9828 20.4606 14.6434 21.4602C15.0617 22.1536 15.658 22.7224 16.3703 23.1076C17.0826 23.4928 17.885 23.6803 18.6942 23.6508C20.937 23.6508 22.7103 21.2255 22.7103 21.2255L16.1473 9.95103Z" fill="#A02C22"/>
</svg>
